<svg width="296" height="292" viewBox="0 0 296 292" fill="none" xmlns="http://www.w3.org/2000/svg">
<g id="animated-circle">
<g id="outer-circel" filter="url(#filter0_d_4_64)">
<path d="M272.499 168.785C271.4 175.05 269.451 182.699 267.293 188.623C267.263 188.706 267.233 188.789 267.203 188.872C266.329 191.287 265.366 193.735 264.092 196.633C263.929 197.004 263.76 197.382 263.585 197.767C262.03 201.187 260.018 205.346 256.808 210.754C245.996 228.976 233.233 240.142 229.388 243.509C221.52 250.247 212.421 256.82 198.665 263.103C197.405 263.671 196.099 264.234 194.76 264.784C193.673 265.232 192.746 265.536 192.697 265.485C192.649 265.433 193.497 265.048 194.582 264.602C195.892 264.065 197.167 263.516 198.397 262.964C198.402 262.962 198.408 262.959 198.413 262.957C212.236 256.656 221.11 250.22 228.81 243.693C232.743 240.278 245.859 228.902 256.848 210.22C260.066 204.752 262.077 200.545 263.622 197.102C263.791 196.724 263.954 196.355 264.11 195.995C264.114 195.987 264.117 195.978 264.121 195.97C265.385 193.056 266.295 190.702 267.121 188.397C267.139 188.348 267.156 188.299 267.174 188.25C269.335 182.265 271.211 174.765 272.275 168.701C272.483 167.544 272.686 166.617 272.749 166.639C272.811 166.662 272.709 167.626 272.499 168.785ZM25.8787 98.0904C28.0618 92.3071 31.6833 84.8863 35.5279 78.7229C39.3589 72.4869 43.4636 67.2769 45.4568 64.892C47.4016 62.5541 49.6098 59.9953 52.3909 57.0775C53.0288 56.4089 53.6974 55.7219 54.3972 55.0198C56.7087 52.7009 59.3687 50.2059 62.4267 47.6296C73.7209 38.2145 82.2663 33.6738 88.3286 30.5657C89.5868 29.9344 90.7652 29.3681 91.8743 28.853C91.8761 28.8522 91.878 28.8513 91.8799 28.8504C96.0769 26.9088 99.2874 25.6534 102.281 24.5979C107.604 22.7472 112.064 21.4958 117.485 20.3408C124.965 18.6766 135.819 17.3928 142.918 17.2326C143.308 17.2192 143.707 17.207 144.111 17.1967C144.722 17.1811 145.35 17.1693 146 17.1622C150.833 17.1277 156.743 17.2385 165.067 18.4018C172.899 19.5215 179.605 21.2348 185.404 23.1021C187.071 23.6398 188.646 24.1864 190.146 24.7367C193.946 26.1329 197.271 27.549 200.364 28.9807C219.489 38.0818 228.517 46.7677 234.115 51.8852C238.366 55.9597 240.509 58.4626 242.063 60.2497C242.529 60.7929 242.937 61.2764 243.319 61.7326C246.721 65.8078 249.676 69.6863 252.905 74.5728C253.618 75.6573 254.344 76.797 255.083 78.0011C257.546 82.0286 259.216 85.1307 260.49 87.5748C261.045 88.6457 261.523 89.5967 261.964 90.4959C261.973 90.5125 261.981 90.529 261.989 90.5456C262.05 90.6708 262.111 90.7952 262.171 90.9188C262.216 91.012 262.261 91.105 262.306 91.1983C262.325 91.2346 262.341 91.2674 262.353 91.2918C262.363 91.3111 262.371 91.3261 262.375 91.3358C262.376 91.3376 262.377 91.3394 262.378 91.3412C262.466 91.517 262.539 91.6693 262.554 91.7006C262.58 91.7551 262.603 91.8036 262.615 91.8284C262.677 91.9593 262.756 92.1284 262.808 92.2409C262.942 92.5303 263.175 93.0332 263.525 93.8165C263.831 94.4976 264.123 95.1528 264.48 95.9772C264.502 96.0289 264.525 96.0806 264.547 96.1324C264.892 96.9341 265.29 97.8759 265.766 99.0688C266.201 100.154 266.531 101.18 266.525 101.35C266.518 101.519 266.181 100.768 265.753 99.6819C265.31 98.5577 264.943 97.6747 264.603 96.8717C264.581 96.8208 264.559 96.77 264.538 96.7192C264.182 95.8846 263.834 95.09 263.455 94.2414C263.328 93.9571 263.196 93.6645 263.073 93.3915C262.849 92.9008 262.589 92.3446 262.273 91.6827C262.209 91.5499 262.143 91.4129 262.076 91.2731C261.643 90.3772 261.126 89.3323 260.527 88.1668C259.123 85.4424 257.283 82.0155 254.587 77.6509C253.879 76.5067 253.174 75.4097 252.471 74.3489C249.222 69.4608 246.044 65.3084 242.398 61.0234C241.897 60.4363 241.414 59.8761 240.891 59.2813C239.331 57.5288 237.481 55.4151 233.543 51.6708C228.192 46.8368 219.416 38.3508 200.451 29.2822C197.215 27.776 193.67 26.273 189.81 24.8657C188.342 24.3304 186.824 23.8078 185.262 23.3047C179.562 21.4736 173.079 19.8195 165.534 18.7099C156.903 17.4733 150.946 17.3717 146 17.4042C145.673 17.4078 145.351 17.4126 145.033 17.4185C144.855 17.4218 144.678 17.4255 144.501 17.4296C144.281 17.4346 144.062 17.44 143.846 17.446C136.293 17.5615 124.754 18.8948 116.52 20.7969C111.352 21.9431 107.099 23.1528 101.824 25.0118C99.2247 25.9447 96.4836 27.002 92.3684 28.8854C91.2163 29.4158 89.9592 30.0143 88.5724 30.7079C82.4089 33.858 73.7479 38.4613 62.3678 47.9893C59.4177 50.4867 56.8775 52.8684 54.5824 55.1689C53.8696 55.8839 53.1785 56.5936 52.5089 57.2962C49.7201 60.2228 47.2564 63.0711 45.0345 65.7858C43.2025 68.0117 39.2635 73.061 35.5582 79.1257C31.7928 85.2081 28.4809 92.0669 26.5167 97.1241C26.3106 97.6483 26.1059 98.1786 25.905 98.7099C24.1658 103.289 22.704 108.056 21.7644 111.953C19.7158 120.65 17.6395 133.024 17.7053 146C17.6608 159.114 19.877 172.587 22.9959 182.88C23.0758 183.149 23.1565 183.417 23.2381 183.685C30.5212 207.434 42.2424 221.784 45.9425 226.512C46.1217 226.734 46.2853 226.936 46.4329 227.116C46.5647 227.278 46.6843 227.423 46.7899 227.552C48.3761 229.476 49.8338 231.132 51.4024 232.829C51.4881 232.922 51.5739 233.014 51.6599 233.106C53.3248 234.893 55.1154 236.727 57.3032 238.822C65.4601 246.597 73.0246 251.913 79.8168 256.013C81.0758 256.769 82.3138 257.484 83.5326 258.162C83.5362 258.164 83.5398 258.166 83.5434 258.168C88.8888 261.136 93.8338 263.408 98.6118 265.311C107.348 268.752 113.549 270.263 118.351 271.326C119.868 271.654 121.261 271.926 122.583 272.165C125.447 272.68 127.958 273.043 130.558 273.354C135.454 273.932 139.981 274.187 144.448 274.226C144.847 274.229 145.246 274.231 145.645 274.231C145.763 274.231 145.882 274.23 146 274.23C150.739 274.211 155.409 273.951 160.317 273.408C161.489 273.278 162.461 273.204 162.494 273.266C162.526 273.327 161.605 273.502 160.432 273.633C155.536 274.178 150.867 274.447 146 274.467C146 274.467 146 274.467 146 274.467C145.598 274.469 145.194 274.468 144.791 274.466C140.323 274.439 135.706 274.194 130.711 273.61C128.196 273.313 125.824 272.977 123.006 272.481C121.663 272.244 120.234 271.97 118.628 271.628C113.739 270.559 107.444 269.037 98.6046 265.563C93.8751 263.682 88.9792 261.444 83.6222 258.482C82.3921 257.801 81.1388 257.08 79.8609 256.315C73.0329 252.208 65.4074 246.866 57.1866 239.037C55.1149 237.056 53.4083 235.32 51.7422 233.542C51.6488 233.443 51.5556 233.343 51.4625 233.243C49.9 231.562 48.3521 229.816 46.6719 227.78C46.4478 227.509 46.1626 227.161 45.8225 226.739C42.1073 221.999 30.3017 207.571 22.9916 183.687C22.9693 183.614 22.947 183.54 22.9249 183.466C18.2545 167.471 17.9035 157.952 17.4698 150.923C17.3887 149.155 17.3516 147.52 17.3429 146C17.3262 142.736 17.4313 140.089 17.5746 137.741C17.6149 137.088 17.6578 136.471 17.7026 135.884C17.8977 133.354 18.1153 131.348 18.3548 129.352C19.104 123.326 19.8965 119.015 21.0407 113.864C22.0207 109.478 23.6008 104.21 25.2784 99.6885C25.2809 99.6818 25.2834 99.675 25.2859 99.6682C25.4837 99.131 25.6821 98.6038 25.8787 98.0904ZM271.036 115.148C271.315 116.292 271.471 117.228 271.405 117.232C271.339 117.235 271.076 116.304 270.796 115.162C270.13 112.439 269.372 109.728 268.528 107.055C268.173 105.93 267.921 105.017 267.986 105.006C268.051 104.996 268.41 105.896 268.766 107.025C269.611 109.703 270.37 112.42 271.036 115.148ZM23.0264 102.324C23.4023 101.223 23.8515 100.145 24.0053 99.9201C24.1593 99.696 23.9534 100.403 23.5679 101.501C23.3649 102.081 23.0345 103.036 22.6149 104.331C20.4665 110.889 16.0224 126.635 16.2396 146C16.2947 153.924 17.0825 162.383 18.754 170.819C19.235 173.252 19.7385 175.44 20.2584 177.491C22.6714 186.215 24.6011 193.399 32.7801 208.7C54.8255 249.201 99.7892 276.01 146 275.581C173.007 275.684 199.957 266.984 221.744 251.076C238.783 238.71 252.743 222.247 262.084 203.367C271.006 187.941 276.321 155.743 275.576 148.139C275.598 146.948 275.65 145.988 275.715 146C275.78 146.013 275.834 146.994 275.812 148.186C276.55 155.75 271.256 187.9 262.377 203.308C253.063 222.199 239.14 238.682 222.131 251.088C200.275 267.126 173.189 275.961 146 275.906C99.6375 276.434 54.3785 249.561 32.2762 208.869C24.1569 193.639 22.5624 186.625 20.1258 177.93C19.5975 175.873 19.0843 173.675 18.5902 171.211C16.8657 162.632 16.0566 154.031 16.0003 146C15.7921 127.191 19.9589 111.872 22.0552 105.284C22.478 103.94 22.8156 102.94 23.0264 102.324ZM52.195 55.4694C61.3199 45.7349 76.6775 34.1178 91.8777 27.4114C99.2316 24.0554 106.394 21.6775 112.199 20.1358C121.22 17.7759 127.058 17.0472 132.851 16.4856C132.913 16.48 132.975 16.4744 133.037 16.4688C136.956 16.1269 140.896 15.9154 146 15.9302C148.42 15.942 151.054 16.0109 154.086 16.1987C163.589 16.7392 176.715 18.8035 189.272 23.2516C189.282 23.255 189.292 23.2585 189.302 23.2619C201.825 27.5675 213.684 34.1296 221.55 39.8193C249.045 59.9867 258.348 80.1028 262.977 89.2571C270.952 105.836 276.066 126.554 275.727 145.38C275.658 147.463 275.531 143.941 275.409 140.151C275.404 140.014 275.399 139.877 275.394 139.74C275.344 138.433 275.287 137.276 275.17 135.667C274.992 133.339 274.802 131.605 274.609 130.024C274.864 125.756 267.742 97.5316 262.394 88.5922C257.914 79.9746 248.704 60.3969 221.168 40.1891C213.479 34.6449 202.052 27.9404 189.487 23.578C189.452 23.566 189.418 23.5539 189.384 23.5419C176.952 19.1107 163.729 16.981 154.084 16.4355C151.069 16.2484 148.429 16.1785 146 16.1671C140.575 16.1523 136.428 16.3957 132.394 16.768C132.337 16.7733 132.28 16.7787 132.223 16.7841C126.502 17.3674 120.942 18.0942 112.273 20.3607C106.351 21.9327 99.1214 24.3478 91.7408 27.734C76.6515 34.4376 61.5467 45.8823 52.4971 55.4967C51.669 56.3537 50.9427 57.0571 50.8589 57.051C50.7761 57.0447 51.3669 56.3292 52.195 55.4694ZM51.329 54.2471C75.6127 28.5648 111.084 13.7214 146 14.1957C148.631 14.2132 151.22 14.3075 153.823 14.4791C163.559 15.0005 177.114 17.1793 189.919 21.7971C190.063 21.8485 190.208 21.9002 190.352 21.9521C203.044 26.445 214.728 33.2023 222.496 38.8337C250.243 59.2394 259.759 79.5877 264.422 88.8635C268.539 97.8947 269.263 100.576 270.616 104.418C270.651 104.523 270.686 104.629 270.721 104.735C270.724 104.742 270.726 104.748 270.729 104.755C270.776 104.887 270.814 104.999 270.833 105.056C270.873 105.173 270.905 105.268 270.917 105.304C270.944 105.386 270.967 105.456 270.975 105.48C271.008 105.581 271.045 105.697 271.069 105.771C271.295 106.467 271.962 108.635 272.437 110.376C272.926 112.158 273.242 113.443 273.557 114.79C273.589 114.926 273.62 115.063 273.652 115.2C273.93 116.418 274.224 117.749 274.602 119.678C274.831 120.846 274.925 121.691 274.835 121.559C274.744 121.425 274.5 120.373 274.266 119.204C273.86 117.179 273.54 115.77 273.255 114.55C273.223 114.415 273.191 114.28 273.159 114.145C272.851 112.862 272.564 111.724 272.128 110.149C271.487 107.872 270.955 106.195 270.449 104.666C269.055 100.695 268.204 97.6051 263.838 88.1912C259.326 79.4731 250.212 59.5721 222.369 39.0331C214.601 33.4002 202.923 26.6508 190.263 22.1713C190.115 22.1182 189.967 22.0654 189.819 22.0128C177.03 17.4035 163.518 15.2364 153.822 14.7156C151.211 14.5602 148.623 14.483 146 14.4817C110.795 14.3533 76.4128 28.9059 51.6347 54.2712C46.7585 59.3027 42.6947 64.2715 39.2255 69.0819C29.0782 83.3056 23.7351 95.8447 20.136 108.058C19.3852 110.74 17.247 117.8 15.8501 128.3C15.4452 131.379 15.1108 134.756 14.9126 138.439C14.7837 140.841 14.7137 143.348 14.7216 146C14.7435 153.25 15.3587 161.35 16.9929 170.016C17.4582 172.481 17.9481 174.699 18.4572 176.783C20.826 185.633 22.5363 192.849 30.6747 208.441C40.0614 228.201 66.9729 253.921 84.7554 262.093C93.3604 266.613 98.5577 268.463 102.194 269.806C103.21 270.171 104.109 270.48 104.937 270.757C107.107 271.479 108.788 271.996 111.026 272.622C123.458 275.981 133.364 277.259 146 277.32C149.782 277.309 153.774 277.144 158.152 276.73C159.339 276.618 160.391 276.552 160.488 276.607C160.588 276.661 159.687 276.82 158.499 276.935C154 277.372 149.893 277.546 146 277.557C133.406 277.499 123.387 276.22 110.86 272.821C108.521 272.165 106.715 271.604 104.507 270.862C103.691 270.587 102.822 270.285 101.857 269.937C98.2765 268.605 93.1282 266.766 84.556 262.255C66.7794 254.069 39.8742 228.332 30.4924 208.601C22.4135 193.137 20.7128 186.053 18.3221 177.226C17.8052 175.138 17.3038 172.902 16.8272 170.415C15.1392 161.598 14.5065 153.354 14.4845 146C14.4768 143.456 14.5411 141.044 14.6594 138.738C14.8493 135.049 15.175 131.679 15.5715 128.602C16.9858 117.869 19.0241 111.232 19.6389 108.919C23.2636 96.2259 28.8698 83.1165 39.1649 68.7616C42.6102 64.0007 46.6074 59.1327 51.329 54.2471ZM222.145 253.025C221.169 253.725 220.28 254.273 220.173 254.267C220.066 254.261 220.782 253.707 221.757 253.011C226.908 249.324 230.374 246.357 233.03 243.992C237.912 239.572 240.101 237.251 243.319 233.737C251.576 224.61 258.184 214.613 262.997 205.075C271.066 189.189 274.102 174.805 275.337 167.28C275.534 166.089 275.724 165.146 275.787 165.168C275.849 165.19 275.76 166.17 275.563 167.362C274.331 174.846 271.32 189.148 263.292 205.015C258.478 214.589 251.852 224.649 243.532 233.854C240.407 237.269 238.343 239.469 233.578 243.818C230.929 246.194 227.434 249.219 222.145 253.025Z" fill="#3B82F6"/>
</g>
<g id="inner-circle">
<g id="Ellipse 2" filter="url(#filter1_d_4_64)">
<mask id="path-3-inside-1_4_64" fill="white">
<path d="M274.124 145.5C275.16 145.5 276.001 146.34 275.986 147.376C275.566 174.894 265.931 201.534 248.536 223.177C231.123 244.842 206.927 260.266 179.703 267.09C178.723 267.335 177.736 266.73 177.495 265.749V265.749C177.251 264.755 177.866 263.754 178.858 263.505C205.25 256.87 228.705 241.908 245.589 220.9C262.463 199.906 271.814 174.068 272.233 147.376C272.25 146.34 273.088 145.5 274.124 145.5V145.5Z"/>
</mask>
<path d="M274.124 145.5C275.16 145.5 276.001 146.34 275.986 147.376C275.566 174.894 265.931 201.534 248.536 223.177C231.123 244.842 206.927 260.266 179.703 267.09C178.723 267.335 177.736 266.73 177.495 265.749V265.749C177.251 264.755 177.866 263.754 178.858 263.505C205.25 256.87 228.705 241.908 245.589 220.9C262.463 199.906 271.814 174.068 272.233 147.376C272.25 146.34 273.088 145.5 274.124 145.5V145.5Z" stroke="#3B82F6" stroke-width="8" stroke-linecap="round" stroke-dasharray="50 30" shape-rendering="crispEdges" mask="url(#path-3-inside-1_4_64)"/>
</g>
<g id="Ellipse 4">
<mask id="path-4-inside-2_4_64" fill="white">
<path d="M173.7 266.432C174.041 268.022 173.021 269.589 171.421 269.881C143.447 274.986 114.503 270.81 89.1812 257.965C63.8933 245.137 43.7161 224.423 31.8002 199.132C31.0927 197.631 31.7972 195.855 33.3252 195.206V195.206C34.8223 194.57 36.5492 195.256 37.2432 196.727C48.6063 220.816 67.8326 240.545 91.9245 252.766C116.038 264.999 143.598 268.985 170.239 264.143C171.821 263.856 173.363 264.859 173.7 266.432V266.432Z"/>
</mask>
<path d="M173.7 266.432C174.041 268.022 173.021 269.589 171.421 269.881C143.447 274.986 114.503 270.81 89.1812 257.965C63.8933 245.137 43.7161 224.423 31.8002 199.132C31.0927 197.631 31.7972 195.855 33.3252 195.206V195.206C34.8223 194.57 36.5492 195.256 37.2432 196.727C48.6063 220.816 67.8326 240.545 91.9245 252.766C116.038 264.999 143.598 268.985 170.239 264.143C171.821 263.856 173.363 264.859 173.7 266.432V266.432Z" stroke="#3B82F6" stroke-width="8" stroke-linecap="round" stroke-dasharray="50 30" mask="url(#path-4-inside-2_4_64)"/>
</g>
<g id="Ellipse 5">
<mask id="path-5-inside-3_4_64" fill="white">
<path d="M179.957 25.4616C180.168 24.4784 181.133 23.848 182.115 24.0647C204.534 29.0137 225.194 39.7927 241.913 55.2833C258.609 70.7517 270.742 90.3317 277.057 111.962C277.348 112.956 276.754 113.989 275.752 114.254V114.254C274.764 114.516 273.751 113.932 273.465 112.951C267.332 91.9589 255.554 72.9561 239.35 57.9427C223.138 42.9223 203.11 32.4647 181.375 27.6521C180.382 27.4322 179.744 26.456 179.957 25.4616V25.4616Z"/>
</mask>
<path d="M179.957 25.4616C180.168 24.4784 181.133 23.848 182.115 24.0647C204.534 29.0137 225.194 39.7927 241.913 55.2833C258.609 70.7517 270.742 90.3317 277.057 111.962C277.348 112.956 276.754 113.989 275.752 114.254V114.254C274.764 114.516 273.751 113.932 273.465 112.951C267.332 91.9589 255.554 72.9561 239.35 57.9427C223.138 42.9223 203.11 32.4647 181.375 27.6521C180.382 27.4322 179.744 26.456 179.957 25.4616V25.4616Z" stroke="#3B82F6" stroke-width="8" stroke-linecap="round" stroke-dasharray="50 30" mask="url(#path-5-inside-3_4_64)"/>
</g>
<g id="Ellipse 3" filter="url(#filter2_d_4_64)">
<mask id="path-6-inside-4_4_64" fill="white">
<path d="M34.3091 200.146C33.3953 200.578 32.3031 200.196 31.8712 199.283C22.0896 178.594 18.2368 155.672 20.745 132.979C23.3197 109.684 32.4944 87.5611 47.2304 69.1145C61.9663 50.6679 81.675 36.6345 104.125 28.6029C126 20.7774 149.626 18.9542 172.459 23.3125C173.453 23.5022 174.088 24.4759 173.877 25.4653V25.4653C173.667 26.4438 172.708 27.069 171.725 26.8816C149.562 22.6556 126.63 24.4273 105.398 32.0231C83.5991 39.8217 64.4621 53.448 50.1537 71.3594C35.8452 89.2709 26.9367 110.752 24.4367 133.371C22.0052 155.37 25.7299 177.59 35.1932 197.652C35.6338 198.586 35.243 199.706 34.3091 200.146V200.146Z"/>
</mask>
<path d="M34.3091 200.146C33.3953 200.578 32.3031 200.196 31.8712 199.283C22.0896 178.594 18.2368 155.672 20.745 132.979C23.3197 109.684 32.4944 87.5611 47.2304 69.1145C61.9663 50.6679 81.675 36.6345 104.125 28.6029C126 20.7774 149.626 18.9542 172.459 23.3125C173.453 23.5022 174.088 24.4759 173.877 25.4653V25.4653C173.667 26.4438 172.708 27.069 171.725 26.8816C149.562 22.6556 126.63 24.4273 105.398 32.0231C83.5991 39.8217 64.4621 53.448 50.1537 71.3594C35.8452 89.2709 26.9367 110.752 24.4367 133.371C22.0052 155.37 25.7299 177.59 35.1932 197.652C35.6338 198.586 35.243 199.706 34.3091 200.146V200.146Z" stroke="#3B82F6" stroke-width="8" stroke-linecap="round" stroke-dasharray="50 30" shape-rendering="crispEdges" mask="url(#path-6-inside-4_4_64)"/>
</g>
</g>
</g>
<defs>
<filter id="filter0_d_4_64" x="0.483856" y="0.184708" width="289.396" height="291.372" filterUnits="userSpaceOnUse" color-interpolation-filters="sRGB">
<feFlood flood-opacity="0" result="BackgroundImageFix"/>
<feColorMatrix in="SourceAlpha" type="matrix" values="0 0 0 0 0 0 0 0 0 0 0 0 0 0 0 0 0 0 127 0" result="hardAlpha"/>
<feOffset/>
<feGaussianBlur stdDeviation="7"/>
<feComposite in2="hardAlpha" operator="out"/>
<feColorMatrix type="matrix" values="0 0 0 0 0.00961538 0 0 0 0 0.385644 0 0 0 0 1 0 0 0 1 0"/>
<feBlend mode="hard-light" in2="BackgroundImageFix" result="effect1_dropShadow_4_64"/>
<feBlend mode="normal" in="SourceGraphic" in2="effect1_dropShadow_4_64" result="shape"/>
</filter>
<filter id="filter1_d_4_64" x="157.442" y="125.5" width="138.544" height="161.644" filterUnits="userSpaceOnUse" color-interpolation-filters="sRGB">
<feFlood flood-opacity="0" result="BackgroundImageFix"/>
<feColorMatrix in="SourceAlpha" type="matrix" values="0 0 0 0 0 0 0 0 0 0 0 0 0 0 0 0 0 0 127 0" result="hardAlpha"/>
<feOffset/>
<feGaussianBlur stdDeviation="10"/>
<feComposite in2="hardAlpha" operator="out"/>
<feColorMatrix type="matrix" values="0 0 0 0 0 0 0 0 0 0.379679 0 0 0 0 1 0 0 0 1 0"/>
<feBlend mode="hard-light" in2="BackgroundImageFix" result="effect1_dropShadow_4_64"/>
<feBlend mode="normal" in="SourceGraphic" in2="effect1_dropShadow_4_64" result="shape"/>
</filter>
<filter id="filter2_d_4_64" x="12.9999" y="14" width="167.917" height="193.324" filterUnits="userSpaceOnUse" color-interpolation-filters="sRGB">
<feFlood flood-opacity="0" result="BackgroundImageFix"/>
<feColorMatrix in="SourceAlpha" type="matrix" values="0 0 0 0 0 0 0 0 0 0 0 0 0 0 0 0 0 0 127 0" result="hardAlpha"/>
<feOffset/>
<feGaussianBlur stdDeviation="3.5"/>
<feComposite in2="hardAlpha" operator="out"/>
<feColorMatrix type="matrix" values="0 0 0 0 0 0 0 0 0 0.379679 0 0 0 0 1 0 0 0 1 0"/>
<feBlend mode="normal" in2="BackgroundImageFix" result="effect1_dropShadow_4_64"/>
<feBlend mode="normal" in="SourceGraphic" in2="effect1_dropShadow_4_64" result="shape"/>
</filter>
</defs>
</svg>
